<svg xmlns="http://www.w3.org/2000/svg" version="1.1" xmlns:xlink="http://www.w3.org/1999/xlink" width="512" height="512" x="0" y="0" viewBox="0 0 345 345" style="enable-background:new 0 0 512 512" xml:space="preserve" class=""><g><g data-name="Layer 4 copy"><ellipse cx="230.18" cy="188.52" fill="#fff8b4" rx="97" ry="152.16" transform="rotate(-14.43 230.419 188.679)" opacity="1" data-original="#fff8b4"></ellipse><ellipse cx="114.82" cy="188.52" fill="#fff8b4" rx="152.16" ry="97" transform="rotate(-75.57 114.848 188.6)" opacity="1" data-original="#fff8b4"></ellipse><ellipse cx="172.04" cy="170.31" fill="#ffd135" rx="142.97" ry="152.16" opacity="1" data-original="#ffd135" class=""></ellipse><g fill="#533324"><path d="M191.3 44.39a2.48 2.48 0 0 1-2-3.94C200.92 24.44 207.19 12.23 209 2a2.48 2.48 0 0 1 3.9-1.55c8 5.63 17.55 8.22 28.26 7.68a2.48 2.48 0 0 1 .25 5c-10.53.52-20-1.7-28.28-6.59-2.65 10.16-9 22-19.81 36.86a2.48 2.48 0 0 1-2.02.99zM152.1 44.39a2.48 2.48 0 0 1-2-1C139.3 28.5 132.92 16.66 130.27 6.5c-8.27 4.9-17.75 7.11-28.27 6.59a2.48 2.48 0 0 1 .25-5C113 8.67 122.47 6.08 130.5.45A2.48 2.48 0 0 1 134.36 2c1.84 10.19 8.11 22.39 19.74 38.41a2.48 2.48 0 0 1-2 3.94zM180.16 242.3c52.41-1 97.56-11.31 129-28.67a160 160 0 0 0 5-26.22c-27.19 21.18-76.31 34.48-134.32 35.59-60.6 1.16-116.43-11.45-149.47-32.57a159.7 159.7 0 0 0 5.15 25 223.16 223.16 0 0 0 37.67 14.15c29.71 8.39 63.74 12.77 98.89 12.77q4.01.03 8.08-.05z" fill="#252c2d" opacity="1" data-original="#533324" class=""></path><path d="M180.16 283.67c39.06-.75 74.08-6.68 102.4-16.83a153.74 153.74 0 0 0 17.59-28.93c-28.46 15.81-71.22 25.51-120.35 26.45-52.45 1-101.33-8.31-134.95-24.52a153.54 153.54 0 0 0 17.27 27.76q5.37 1.78 11 3.38c29.71 8.39 63.74 12.77 98.89 12.77q4.08 0 8.15-.08zM185.87 321.77a137 137 0 0 0 67.22-26.11 344.33 344.33 0 0 1-70.54 8.24c-33.86.65-66.21-3-93.94-10a137.11 137.11 0 0 0 70.59 28 88.41 88.41 0 0 1 13.3 23.1 80.59 80.59 0 0 1 13.37-23.23z" fill="#252c2d" opacity="1" data-original="#533324" class=""></path></g></g><path d="M262.19 58.17a4.93 4.93 0 0 1-3.48-1.43c-6.94-6.87-18.32-10-27.66-7.73a4.94 4.94 0 1 1-2.38-9.6c12.72-3.16 27.59 1 37 10.3a4.94 4.94 0 0 1-3.48 8.46zM172.5 204.15c-8.15 0-15.83-2.11-21.61-5.94-7-4.61-10.8-11.53-10.8-19.48a4.94 4.94 0 0 1 9.89 0c0 10.67 11.67 15.53 22.52 15.53s22.5-4.86 22.5-15.53a4.94 4.94 0 0 1 9.89 0c.02 16.69-16.28 25.42-32.39 25.42zM82.81 58.17a4.94 4.94 0 0 1-3.48-8.46c9.41-9.31 24.27-13.46 37-10.3a4.94 4.94 0 1 1-2.38 9.6c-9.34-2.32-20.72.86-27.66 7.73a4.93 4.93 0 0 1-3.48 1.43z" fill="#000000" opacity="1" data-original="#000000" class=""></path><circle cx="229.78" cy="114.5" r="52.72" fill="#ffffff" opacity="1" data-original="#ffffff"></circle><circle cx="224.68" cy="114.5" r="39.5" fill="#000000" opacity="1" data-original="#000000" class=""></circle><path fill="#ffffff" d="M197 107.16a4.95 4.95 0 0 1-4.54-6.89c3.83-9 12.72-17 21.62-19.5a4.94 4.94 0 0 1 2.69 9.52c-6 1.7-12.56 7.67-15.22 13.87a5 5 0 0 1-4.55 3z" opacity="1" data-original="#ffffff"></path><circle cx="115.22" cy="114.5" r="52.72" fill="#ffffff" opacity="1" data-original="#ffffff"></circle><circle cx="120.32" cy="114.5" r="39.5" fill="#000000" opacity="1" data-original="#000000" class=""></circle><path fill="#ffffff" d="M92.62 107.16a4.95 4.95 0 0 1-4.54-6.89c3.83-9 12.72-17 21.62-19.5a4.94 4.94 0 0 1 2.69 9.52c-6 1.7-12.56 7.67-15.22 13.87a5 5 0 0 1-4.55 3z" opacity="1" data-original="#ffffff"></path></g></svg>