<svg id="Capa_1" enable-background="new 0 0 510 510" height="512" viewBox="0 0 510 510" width="512" xmlns="http://www.w3.org/2000/svg" xmlns:xlink="http://www.w3.org/1999/xlink"><linearGradient id="lg1"><stop offset="0" stop-color="#5a5a5a"/><stop offset="1" stop-color="#444"/></linearGradient><linearGradient id="SVGID_1_" gradientUnits="userSpaceOnUse" x1="187.343" x2="316.412" xlink:href="#lg1" y1="187.343" y2="316.412"/><linearGradient id="SVGID_00000085237444206097843320000011207497661534075778_" gradientUnits="userSpaceOnUse" x1="375.02" x2="119.028" xlink:href="#lg1" y1="375.02" y2="119.028"/><linearGradient id="lg2"><stop offset="0" stop-color="#433f43" stop-opacity="0"/><stop offset="1" stop-color="#1a1a1a"/></linearGradient><linearGradient id="SVGID_00000177442760665143813350000011644371035294510264_" gradientUnits="userSpaceOnUse" x1="125.314" x2="8.32" xlink:href="#lg2" y1="258.363" y2="126.37"/><linearGradient id="SVGID_00000163787599617877789810000004847470734719147432_" gradientUnits="userSpaceOnUse" x1="255" x2="255" xlink:href="#lg2" y1="326" y2="459.843"/><linearGradient id="SVGID_00000052074035742208069880000011727906971483783860_" gradientUnits="userSpaceOnUse" x1="193.397" x2="316.099" y1="193.397" y2="316.099"><stop offset="0" stop-color="#b3dafe"/><stop offset="1" stop-color="#26a6fe"/></linearGradient><linearGradient id="SVGID_00000066490694660236310120000004276810650099321279_" gradientUnits="userSpaceOnUse" x1="234.044" x2="136.711" xlink:href="#lg2" y1="558.008" y2="416.674"/><linearGradient id="SVGID_00000116212785581084563380000012377936625890153400_" gradientUnits="userSpaceOnUse" x1="415.233" x2="353.733" xlink:href="#lg2" y1="181.527" y2="21.027"/><linearGradient id="lg3"><stop offset="0" stop-color="#bbec6c"/><stop offset="1" stop-color="#78a91f"/></linearGradient><linearGradient id="SVGID_00000116914161368265249530000005581829496690237623_" gradientUnits="userSpaceOnUse" x1="73.579" x2="73.579" xlink:href="#lg3" y1="354.509" y2="508.905"/><linearGradient id="SVGID_00000146464092962950521530000018142635310726709120_" gradientUnits="userSpaceOnUse" x1="449.619" x2="445.286" xlink:href="#lg2" y1="274.609" y2="201.609"/><linearGradient id="SVGID_00000034058993090149344470000008661655775616955023_" gradientUnits="userSpaceOnUse" x1="459.672" x2="459.672" xlink:href="#lg3" y1="161.02" y2="266.629"/><linearGradient id="SVGID_00000047781801440471919020000011067848518215183032_" gradientUnits="userSpaceOnUse" x1="359.014" x2="359.014" xlink:href="#lg3" y1="15.253" y2="120.861"/><linearGradient id="SVGID_00000050662934100727736420000012541193388266636212_" gradientUnits="userSpaceOnUse" x1="47.671" x2="143.245" y1="56.322" y2="131.066"><stop offset="0" stop-color="#fee45a"/><stop offset="1" stop-color="#fea613"/></linearGradient><linearGradient id="lg4"><stop offset="0" stop-color="#fea613" stop-opacity="0"/><stop offset="1" stop-color="#e94444"/></linearGradient><linearGradient id="SVGID_00000107572074421742390990000008866187493376764302_" gradientUnits="userSpaceOnUse" x1="132.414" x2="122.816" xlink:href="#lg4" y1="26.9" y2="57.124"/><linearGradient id="SVGID_00000169557891463864690300000010590887184149794712_" gradientUnits="userSpaceOnUse" x1="52.664" x2="52.664" xlink:href="#lg4" y1="136.192" y2="185.231"/><linearGradient id="SVGID_00000127723088582538298690000011683945173408602537_" gradientUnits="userSpaceOnUse" x1="369.008" x2="482.301" y1="362.212" y2="450.813"><stop offset="0" stop-color="#d9b1ee"/><stop offset="1" stop-color="#814aa0"/></linearGradient><linearGradient id="lg5"><stop offset="0" stop-color="#5b3374" stop-opacity="0"/><stop offset="1" stop-color="#5b3374"/></linearGradient><linearGradient id="SVGID_00000028305942384135799180000012779319129452533691_" gradientUnits="userSpaceOnUse" x1="469.461" x2="458.083" xlink:href="#lg5" y1="327.335" y2="363.163"/><linearGradient id="SVGID_00000083769069860370386520000015395273267739462072_" gradientUnits="userSpaceOnUse" x1="374.926" x2="374.926" xlink:href="#lg5" y1="456.889" y2="515.021"/><g><g><path d="m255 27.964c-125.382 0-227.036 101.654-227.036 227.036s101.654 227.036 227.036 227.036 227.036-101.654 227.036-227.036-101.654-227.036-227.036-227.036zm0 160.123c36.951 0 66.913 29.962 66.913 66.913s-29.962 66.913-66.913 66.913-66.913-29.962-66.913-66.913 29.962-66.913 66.913-66.913z" fill="url(#SVGID_1_)"/><path d="m255 71.255c-101.485 0-183.745 82.26-183.745 183.745s82.26 183.745 183.745 183.745 183.745-82.26 183.745-183.745-82.26-183.745-183.745-183.745zm0 250.658c-36.951 0-66.913-29.962-66.913-66.913s29.962-66.913 66.913-66.913 66.913 29.962 66.913 66.913-29.962 66.913-66.913 66.913z" fill="url(#SVGID_00000085237444206097843320000011207497661534075778_)"/><path d="m311.643 290.602c-11.846 18.805-32.78 31.311-56.643 31.311-36.951 0-66.913-29.962-66.913-66.913 0-23.863 12.506-44.797 31.311-56.643l-114.062-114.062c-47.424 41.612-77.372 102.66-77.372 170.705 0 125.382 101.655 227.036 227.036 227.036 68.045 0 129.093-29.949 170.705-77.373z" fill="url(#SVGID_00000177442760665143813350000011644371035294510264_)"/><path d="m321.913 255c0 36.951-29.962 66.913-66.913 66.913s-66.913-29.962-66.913-66.913h-160.123c0 125.382 101.655 227.036 227.036 227.036s227.036-101.654 227.036-227.036z" fill="url(#SVGID_00000163787599617877789810000004847470734719147432_)"/><path d="m255 136.203c-65.607 0-118.797 53.19-118.797 118.797s53.19 118.797 118.797 118.797 118.797-53.191 118.797-118.797-53.19-118.797-118.797-118.797zm0 179.797c-33.686 0-61-27.314-61-61s27.314-61 61-61 61 27.314 61 61-27.314 61-61 61z" fill="url(#SVGID_00000052074035742208069880000011727906971483783860_)"/></g><path d="m225.824 480.176-78.947-78.947h-2.856l-66.748-66.748v61.783c35.883 45.084 88.549 76.213 148.551 83.912z" fill="url(#SVGID_00000066490694660236310120000004276810650099321279_)"/><path d="m354.351 50.812h-44.007l168.97 168.97c-11.608-74.518-59.46-137.036-124.963-168.97z" fill="url(#SVGID_00000116212785581084563380000012377936625890153400_)"/><path d="m69.884 470.967c-14.443-28.443-38.291-51.304-67.46-64.472-3.232-1.459-3.232-6.083 0-7.543 29.169-13.168 53.017-36.029 67.46-64.472 1.537-3.028 5.851-3.028 7.389 0 14.443 28.443 38.291 51.304 67.46 64.472 3.232 1.459 3.232 6.084 0 7.543-29.169 13.168-53.017 36.029-67.46 64.472-1.538 3.028-5.851 3.028-7.389 0z" fill="url(#SVGID_00000116914161368265249530000005581829496690237623_)"/><path d="m481.703 267.282c.217-4.067.333-8.161.333-12.282 0-20.2-2.652-39.778-7.604-58.42h-63.432z" fill="url(#SVGID_00000146464092962950521530000018142635310726709120_)"/><path d="m457.145 240.679c-9.879-19.456-26.192-35.092-46.144-44.1-2.211-.998-2.211-4.161 0-5.159 19.952-9.007 36.264-24.644 46.144-44.1 1.052-2.071 4.002-2.071 5.054 0 9.879 19.456 26.192 35.092 46.144 44.1 2.21.998 2.21 4.161 0 5.159-19.952 9.007-36.264 24.644-46.144 44.1-1.052 2.071-4.003 2.071-5.054 0z" fill="url(#SVGID_00000034058993090149344470000008661655775616955023_)"/><path d="m356.487 94.912c-9.879-19.456-26.192-35.092-46.144-44.1-2.211-.998-2.211-4.161 0-5.159 19.952-9.007 36.264-24.644 46.144-44.1 1.052-2.071 4.002-2.071 5.054 0 9.879 19.456 26.192 35.092 46.144 44.1 2.21.998 2.21 4.161 0 5.159-19.952 9.007-36.264 24.644-46.144 44.1-1.051 2.071-4.002 2.071-5.054 0z" fill="url(#SVGID_00000047781801440471919020000011067848518215183032_)"/><g><path d="m152.755 5.377c-.039.038-.077.076-.116.115l-7.689 7.689c-7.326 7.326-19.203 7.326-26.529 0l-7.689-7.689c-3.502-3.502-8.044-5.33-12.632-5.484-7.619-.255-13.897 5.951-13.897 13.574v83.689c-13.201-6.223-30.809-6.575-47.686.396-27.676 11.433-42.883 38.201-33.966 59.789 8.918 21.588 38.583 29.82 66.26 18.388 22.724-9.387 37.038-29.113 36.498-47.821h.019v-90.775c1.957.903 3.791 2.16 5.404 3.772l7.689 7.689c7.326 7.326 19.203 7.326 26.529 0l7.689-7.689c2.349-2.349 5.165-3.937 8.149-4.774 3.483-.976 5.824-4.247 5.824-7.865v-17.044c.001-7.208-8.717-11.013-13.857-5.96z" fill="url(#SVGID_00000050662934100727736420000012541193388266636212_)"/><path d="m118.421 48.71c7.326 7.326 19.203 7.326 26.529 0l7.689-7.689c2.349-2.349 5.165-3.937 8.149-4.774 3.483-.976 5.824-4.247 5.824-7.865v-17.045c0-7.208-8.718-11.013-13.858-5.96-.039.038-.077.076-.116.115l-7.689 7.689c-7.326 7.326-19.203 7.326-26.529 0l-7.689-7.689c-1.613-1.613-3.447-2.866-5.404-3.768v35.525c1.957.903 3.791 2.16 5.404 3.772z" fill="url(#SVGID_00000107572074421742390990000008866187493376764302_)"/><path d="m105.328 119.446h-96.776c-8.349 11.839-11.061 25.758-6 38.01 8.918 21.588 38.583 29.82 66.26 18.388 22.724-9.387 37.038-29.113 36.498-47.821h.019v-8.577z" fill="url(#SVGID_00000169557891463864690300000010590887184149794712_)"/></g><g><path d="m493.573 301.822c-.046.045-.092.09-.137.136l-9.115 9.115c-8.684 8.684-22.763 8.684-31.447 0l-9.115-9.115c-4.151-4.151-9.535-6.318-14.974-6.5-9.031-.303-16.473 7.054-16.473 16.09v99.205c-15.648-7.377-36.521-7.794-56.527.47-32.808 13.552-50.834 45.284-40.263 70.874s45.736 35.349 78.544 21.797c26.937-11.127 43.905-34.51 43.265-56.687h.022v-107.605c2.32 1.07 4.494 2.56 6.405 4.472l9.115 9.115c8.684 8.684 22.763 8.684 31.447 0l9.115-9.115c2.784-2.784 6.123-4.667 9.66-5.659 4.129-1.158 6.904-5.035 6.904-9.323v-20.205c.001-8.544-10.333-13.055-16.426-7.065z" fill="url(#SVGID_00000127723088582538298690000011683945173408602537_)"/><path d="m452.874 353.189c8.684 8.684 22.763 8.684 31.447 0l9.115-9.115c2.784-2.784 6.123-4.667 9.66-5.659 4.129-1.158 6.904-5.035 6.904-9.323v-20.205c0-8.544-10.334-13.055-16.427-7.065-.046.045-.092.09-.137.136l-9.115 9.115c-8.684 8.684-22.763 8.684-31.447 0l-9.115-9.115c-1.911-1.911-4.086-3.397-6.405-4.467v42.111c2.32 1.07 4.494 2.56 6.405 4.472z" fill="url(#SVGID_00000028305942384135799180000012779319129452533691_)"/><path d="m437.353 437.039h-114.718c-9.897 14.034-13.112 30.534-7.113 45.057 10.571 25.59 45.736 35.349 78.544 21.797 26.937-11.127 43.905-34.51 43.265-56.687h.022z" fill="url(#SVGID_00000083769069860370386520000015395273267739462072_)"/></g></g></svg>