<svg id="Capa_1" enable-background="new 0 0 510 510" height="512" viewBox="0 0 510 510" width="512" xmlns="http://www.w3.org/2000/svg" xmlns:xlink="http://www.w3.org/1999/xlink"><linearGradient id="SVGID_1_" gradientUnits="userSpaceOnUse" x1="74.688" x2="435.312" y1="74.688" y2="435.312"><stop offset="0" stop-color="#eaf6ff"/><stop offset="1" stop-color="#b3dafe"/></linearGradient><linearGradient id="lg1"><stop offset="0" stop-color="#5a5a5a"/><stop offset="1" stop-color="#444"/></linearGradient><linearGradient id="SVGID_00000020362434315634877640000017096921135335198098_" gradientUnits="userSpaceOnUse" x1="215.831" x2="274.034" xlink:href="#lg1" y1="226.108" y2="284.312"/><linearGradient id="lg2"><stop offset="0" stop-color="#433f43" stop-opacity="0"/><stop offset="1" stop-color="#1a1a1a"/></linearGradient><linearGradient id="SVGID_00000008141969043781504760000011266803199967370912_" gradientUnits="userSpaceOnUse" x1="255.004" x2="255.004" xlink:href="#lg2" y1="276" y2="335.009"/><linearGradient id="SVGID_00000007428707110415879640000005023741630740497078_" gradientUnits="userSpaceOnUse" x1="221.026" x2="273.285" xlink:href="#lg1" y1="15.228" y2="67.488"/><linearGradient id="lg3"><stop offset="0" stop-color="#7bacdf" stop-opacity="0"/><stop offset=".1607" stop-color="#78a7d7" stop-opacity=".161"/><stop offset=".4059" stop-color="#729ac2" stop-opacity=".406"/><stop offset=".7031" stop-color="#6686a0" stop-opacity=".703"/><stop offset="1" stop-color="#596c76"/></linearGradient><linearGradient id="SVGID_00000136399829970537226330000010486671163565762947_" gradientUnits="userSpaceOnUse" x1="255" x2="255" xlink:href="#lg3" y1="294" y2="494.639"/><linearGradient id="SVGID_00000059280893495808952870000003676849684362123684_" gradientUnits="userSpaceOnUse" x1="344.791" x2="389.224" xlink:href="#lg1" y1="395.962" y2="440.395"/><linearGradient id="SVGID_00000096781745262642888070000009123466921082212766_" gradientUnits="userSpaceOnUse" x1="417.351" x2="477.654" xlink:href="#lg1" y1="158.837" y2="219.14"/><linearGradient id="SVGID_00000110443980089208130510000011650089295208227217_" gradientUnits="userSpaceOnUse" x1="433.479" x2="495.479" xlink:href="#lg2" y1="180.966" y2="229.966"/><linearGradient id="SVGID_00000062176288817906126430000003434525440535203512_" gradientUnits="userSpaceOnUse" x1="128.475" x2="180.676" xlink:href="#lg1" y1="415.526" y2="467.727"/><linearGradient id="SVGID_00000108297506613832681260000003238493226094234291_" gradientUnits="userSpaceOnUse" x1="372.167" x2="372.167" xlink:href="#lg2" y1="359" y2="452.904"/><linearGradient id="SVGID_00000163061890114187997680000007642285481607155114_" gradientUnits="userSpaceOnUse" x1="137.837" x2="137.837" xlink:href="#lg2" y1="359" y2="452.904"/><linearGradient id="SVGID_00000097464140592018324610000005324753153036781471_" gradientUnits="userSpaceOnUse" x1="31.996" x2="96.12" xlink:href="#lg1" y1="170.051" y2="234.175"/><linearGradient id="SVGID_00000152959530306534073320000006915238721686230448_" gradientUnits="userSpaceOnUse" x1="172.566" x2="246.997" xlink:href="#lg3" y1="151.435" y2="225.866"/><linearGradient id="SVGID_00000183217659499535162420000009857262212130855356_" gradientUnits="userSpaceOnUse" x1="141.74" x2="195.2" xlink:href="#lg3" y1="320.26" y2="373.721"/><linearGradient id="SVGID_00000063594440173838992640000006317865423832685444_" gradientUnits="userSpaceOnUse" x1="110.648" x2="160.272" xlink:href="#lg3" y1="64.352" y2="113.975"/><linearGradient id="SVGID_00000009579516681942058610000011164428126778098052_" gradientUnits="userSpaceOnUse" x1="31.777" x2="86.777" xlink:href="#lg3" y1="338.367" y2="336.367"/><linearGradient id="SVGID_00000016779337061719908240000002020727052982301360_" gradientUnits="userSpaceOnUse" x1="337.348" x2="355.348" xlink:href="#lg3" y1="180.147" y2="260.147"/><linearGradient id="SVGID_00000113323139456480895740000005561747543925532853_" gradientUnits="userSpaceOnUse" x1="386.411" x2="406.411" xlink:href="#lg3" y1="316.571" y2="405.571"/><linearGradient id="SVGID_00000085220352378002490860000017737446906256782722_" gradientUnits="userSpaceOnUse" x1="398.41" x2="399.41" xlink:href="#lg3" y1="54.329" y2="159.329"/><linearGradient id="SVGID_00000162327595839525947260000002119429898489314485_" gradientUnits="userSpaceOnUse" x1="466.74" x2="504.74" xlink:href="#lg3" y1="302.623" y2="403.623"/><linearGradient id="SVGID_00000066481354775316446310000011286807232489064343_" gradientUnits="userSpaceOnUse" x1="253.049" x2="312.049" xlink:href="#lg3" y1="374.865" y2="477.865"/><linearGradient id="SVGID_00000088822210334612176970000008831914430307928722_" gradientUnits="userSpaceOnUse" x1="245.243" x2="273.243" xlink:href="#lg3" y1="478.467" y2="532.467"/><g><g><circle cx="255" cy="255" fill="url(#SVGID_1_)" r="255"/><path d="m195.067 326.373-27.504-84.648c-2.173-6.687.207-14.012 5.896-18.145l72.006-52.315c5.688-4.133 13.391-4.133 19.079 0l72.006 52.315c5.688 4.133 8.068 11.458 5.896 18.145l-27.504 84.648c-2.173 6.687-8.404 11.214-15.435 11.214h-89.004c-7.032 0-13.263-4.527-15.436-11.214z" fill="url(#SVGID_00000020362434315634877640000017096921135335198098_)"/><path d="m195.067 326.373-27.504-84.648c-2.173-6.687.207-14.012 5.896-18.145l72.006-52.315c5.688-4.133 13.391-4.133 19.079 0l72.006 52.315c5.688 4.133 8.068 11.458 5.896 18.145l-27.504 84.648c-2.173 6.687-8.404 11.214-15.435 11.214h-89.004c-7.032 0-13.263-4.527-15.436-11.214z" fill="url(#SVGID_00000008141969043781504760000011266803199967370912_)"/><path d="m331.509 78.382-70.34 28.866c-3.947 1.63-8.378 1.63-12.325 0l-70.354-28.866c-8.109-3.341-12.109-12.514-9.025-20.73l18.319-48.694c21.418-5.846 43.953-8.958 67.216-8.958s45.798 3.112 67.215 8.957l18.319 48.694c3.098 8.217-.902 17.39-9.025 20.731z" fill="url(#SVGID_00000007428707110415879640000005023741630740497078_)"/><g><g><path d="m0 255c0 140.833 114.167 255 255 255s255-114.167 255-255c0-7.656-.357-15.227-1.018-22.71h-507.964c-.661 7.483-1.018 15.054-1.018 22.71z" fill="url(#SVGID_00000136399829970537226330000010486671163565762947_)"/><path d="m450.463 418.768c-30.186 36.005-70.125 63.538-115.761 78.53h-.013l-32.826-19.37c-7.866-4.634-10.358-14.844-5.523-22.576l46.068-73.681c2.438-3.893 6.398-6.574 10.91-7.382l72.617-12.985c9.133-1.63 17.78 4.714 18.952 13.915z" fill="url(#SVGID_00000059280893495808952870000003676849684362123684_)"/><path d="m510 255c0 1.037 0 2.074-.027 3.112v.013l-36.019 29.499c-6.856 5.63-16.959 4.701-22.684-2.088l-51.469-60.979c-2.707-3.206-4.068-7.341-3.798-11.53l5.267-80.577c.579-8.836 8.149-15.585 16.999-15.141l53.045 2.627c24.515 39.171 38.686 85.454 38.686 135.064z" fill="url(#SVGID_00000096781745262642888070000009123466921082212766_)"/><path d="m510 255c0 1.037 0 2.074-.027 3.112v.013l-36.019 29.499c-6.856 5.63-16.959 4.701-22.684-2.088l-51.469-60.979c-2.707-3.206-4.068-7.341-3.798-11.53l5.267-80.577c.579-8.836 8.149-15.585 16.999-15.141l53.045 2.627c24.515 39.171 38.686 85.454 38.686 135.064z" fill="url(#SVGID_00000110443980089208130510000011650089295208227217_)"/></g><g><path d="m208.151 477.928-32.826 19.37h-.013c-45.636-14.992-85.575-42.524-115.774-78.53l5.576-43.548c1.185-9.2 9.82-15.544 18.952-13.915l72.63 12.985c4.513.808 8.473 3.488 10.897 7.382l46.067 73.681c4.85 7.731 2.344 17.941-5.509 22.575z" fill="url(#SVGID_00000062176288817906126430000003434525440535203512_)"/><path d="m450.463 418.768c-30.186 36.005-70.125 63.538-115.761 78.53h-.013l-32.826-19.37c-7.866-4.634-10.358-14.844-5.523-22.576l46.068-73.681c2.438-3.893 6.398-6.574 10.91-7.382l72.617-12.985c9.133-1.63 17.78 4.714 18.952 13.915z" fill="url(#SVGID_00000059280893495808952870000003676849684362123684_)"/><path d="m450.463 418.768c-30.186 36.005-70.125 63.538-115.761 78.53h-.013l-32.826-19.37c-7.866-4.634-10.358-14.844-5.523-22.576l46.068-73.681c2.438-3.893 6.398-6.574 10.91-7.382l72.617-12.985c9.133-1.63 17.78 4.714 18.952 13.915z" fill="url(#SVGID_00000108297506613832681260000003238493226094234291_)"/><path d="m208.151 477.928-32.826 19.37h-.013c-45.636-14.992-85.575-42.524-115.774-78.53l5.576-43.548c1.185-9.2 9.82-15.544 18.952-13.915l72.63 12.985c4.513.808 8.473 3.488 10.897 7.382l46.067 73.681c4.85 7.731 2.344 17.941-5.509 22.575z" fill="url(#SVGID_00000163061890114187997680000007642285481607155114_)"/><path d="m110.211 224.558-51.469 60.979c-5.725 6.789-15.827 7.718-22.697 2.088l-36.018-29.513c-.027-1.038-.027-2.075-.027-3.112 0-49.61 14.17-95.893 38.686-135.063l53.045-2.627c8.863-.444 16.42 6.304 16.999 15.141l5.267 80.577c.282 4.189-1.078 8.324-3.786 11.53z" fill="url(#SVGID_00000097464140592018324610000005324753153036781471_)"/></g></g></g><g><path d="m255.004 152.392v-26.898c0-9.507-5.743-18.071-14.537-21.681l-63.92-26.236c-7.805-3.203-16.729-1.965-23.366 3.243l-35.765 28.063c-6.086 4.776-9.423 12.247-8.919 19.966l4.781 73.156c.68 10.401 8.147 19.103 18.324 21.354l22.015 4.871c6.551 1.449 13.41.021 18.838-3.923l72.888-52.956c6.07-4.408 9.661-11.457 9.661-18.959z" fill="url(#SVGID_00000152959530306534073320000006915238721686230448_)"/><path d="m128.26 222.621 22.574 4.994c8.107 1.794 14.661 7.744 17.227 15.641l26.417 81.304c2.615 8.048.688 16.88-5.04 23.108l-16.947 18.424c-5.425 5.898-13.487 8.615-21.375 7.204l-69.819-12.488c-8.611-1.54-15.648-7.748-18.249-16.1l-10.803-34.678c-2.38-7.642-.696-15.97 4.466-22.086l48.577-57.556c5.619-6.657 14.466-9.649 22.972-7.767z" fill="url(#SVGID_00000183217659499535162420000009857262212130855356_)"/><path d="m182.707 22.468-16.474 43.791c-1.509 4.014-4.095 7.53-7.476 10.183l-5.577 4.378-35.763 28.058-3.866 3.031c-3.812 3.004-8.459 4.741-13.308 4.97l-61.558 3.044c32.868-52.533 84.35-92.242 145.194-109.874.727 3.933.417 8.189-1.172 12.419z" fill="url(#SVGID_00000063594440173838992640000006317865423832685444_)"/><path d="m66.636 363.366-7.099 55.402c-36.544-43.562-58.783-99.53-59.51-160.656l42.956 35.197c3.556 2.909 6.169 6.789 7.53 11.167l12.54 40.235 2.707 8.715c.997 3.205 1.293 6.599.876 9.94z" fill="url(#SVGID_00000009579516681942058610000011164428126778098052_)"/></g><g><path d="m255.004 152.392v-26.898c0-9.507 5.743-18.071 14.537-21.681l63.92-26.236c7.805-3.203 16.729-1.965 23.366 3.243l35.765 28.063c6.086 4.776 9.423 12.247 8.919 19.966l-4.781 73.156c-.68 10.401-8.147 19.103-18.324 21.354l-22.015 4.871c-6.551 1.449-13.41.021-18.838-3.923l-72.888-52.956c-6.069-4.408-9.661-11.457-9.661-18.959z" fill="url(#SVGID_00000016779337061719908240000002020727052982301360_)"/><path d="m381.748 222.621-22.574 4.994c-8.107 1.794-14.661 7.744-17.226 15.641l-26.417 81.304c-2.615 8.048-.688 16.88 5.04 23.108l16.947 18.424c5.425 5.898 13.487 8.615 21.375 7.204l69.819-12.488c8.611-1.54 15.648-7.748 18.249-16.1l10.802-34.678c2.38-7.642.696-15.97-4.466-22.086l-48.577-57.556c-5.618-6.657-14.466-9.649-22.972-7.767z" fill="url(#SVGID_00000113323139456480895740000005561747543925532853_)"/><path d="m471.314 119.923-61.558-3.044c-4.836-.229-9.483-1.967-13.309-4.97l-3.677-2.883-36.733-28.812-4.795-3.772c-3.367-2.654-5.954-6.169-7.462-10.183l-16.488-43.791c-1.589-4.229-1.899-8.486-1.172-12.419 60.859 17.632 112.327 57.341 145.194 109.874z" fill="url(#SVGID_00000085220352378002490860000017737446906256782722_)"/><path d="m509.973 258.125c-.727 61.127-22.966 117.081-59.51 160.643l-7.085-55.402c-.431-3.341-.135-6.735.875-9.941l2.707-8.715 12.541-40.235c1.36-4.378 3.974-8.257 7.516-11.167z" fill="url(#SVGID_00000162327595839525947260000002119429898489314485_)"/></g><path d="m191.748 345.157-15.875 17.258c-7.142 7.765-8.216 19.345-2.623 28.29l42.36 67.754c4.283 6.851 11.793 11.012 19.872 11.012h39.047c8.079 0 15.589-4.161 19.872-11.012l42.359-67.754c5.593-8.946 4.519-20.526-2.623-28.29l-15.875-17.258c-4.438-4.825-10.693-7.57-17.249-7.57h-92.016c-6.556 0-12.811 2.745-17.249 7.57z" fill="url(#SVGID_00000066481354775316446310000011286807232489064343_)"/><path d="m334.688 497.298c-25.067 8.243-51.859 12.702-79.688 12.702s-54.607-4.459-79.675-12.702l41.663-24.583c3.597-2.115 7.718-3.246 11.908-3.246h52.223c4.189 0 8.297 1.132 11.907 3.246z" fill="url(#SVGID_00000088822210334612176970000008831914430307928722_)"/></g></svg>